<?xml version="1.0" encoding="utf-8"?>
<!-- Generator: Adobe Illustrator 28.3.0, SVG Export Plug-In . SVG Version: 6.00 Build 0)  -->
<svg version="1.1" id="Capa_1" xmlns="http://www.w3.org/2000/svg" xmlns:xlink="http://www.w3.org/1999/xlink" x="0px" y="0px"
	 viewBox="0 0 32 32" style="enable-background:new 0 0 32 32;" xml:space="preserve">
<path d="M26.08,21.59c0.26-0.93,0.41-1.89,0.4-2.86c0.06-4.28-2.67-8.4-6.64-10c-0.48-0.2-0.97-0.36-1.46-0.49L15.69,3.6l-2.69,4.65
	C8.48,9.45,4.88,13.54,4.9,18.73c0,1.01,0.14,1.97,0.39,2.88l-2.63,4.55h5.25c2.93,3.02,7.56,4.3,11.9,2.51
	c1.39-0.56,2.63-1.43,3.65-2.51h5.26L26.08,21.59z M26.28,18.73c0,0.92-0.11,1.8-0.32,2.64l-0.59-1.02
	c0.09-0.53,0.14-1.07,0.14-1.62c0-4.2-2.66-7.79-6.38-9.19L18.58,8.6C22.88,9.84,26.27,13.76,26.28,18.73z M24.63,22.78
	c0.21-0.47,0.39-0.96,0.53-1.47l0.54,0.93c-0.16,0.47-0.36,0.93-0.59,1.36L24.63,22.78z M25.07,24.25h-0.15
	c0.02-0.04,0.05-0.08,0.08-0.12L25.07,24.25z M9.54,25.5c-0.3-0.28-0.59-0.58-0.86-0.89h6.68v0.89H9.54z M15.36,26.16v1.71
	c-1.86-0.07-3.58-0.69-5-1.71H15.36z M8.4,24.25c-0.42-0.55-0.77-1.14-1.05-1.78l3.14-5.44h4.88v7.21H8.4z M6.29,23.6
	c-0.23-0.45-0.42-0.91-0.58-1.38l0.52-0.9c0.14,0.51,0.32,1,0.53,1.47L6.29,23.6z M6.44,24.25H6.32l0.06-0.1
	C6.4,24.19,6.42,24.22,6.44,24.25z M8.29,16.43H6.84c0.68-2.61,2.49-4.77,4.87-5.93L8.29,16.43z M8.7,17.04h1.38l-2.9,5.02
	c-0.2-0.51-0.35-1.04-0.46-1.59L8.7,17.04z M7.93,17.04L6.57,19.4c-0.02-0.22-0.03-0.44-0.03-0.66c0-0.58,0.06-1.15,0.16-1.7H7.93z
	 M6.95,23.17c0.19,0.38,0.4,0.74,0.64,1.08H6.65c-0.06-0.09-0.11-0.19-0.17-0.29L6.95,23.17z M10.84,16.43l3.92-6.79
	c0.2-0.02,0.4-0.03,0.6-0.04v6.83H10.84z M15.16,8.94l0.44-0.76c0.06,0,0.13,0,0.19,0l0.43,0.75c-0.18-0.01-0.35-0.01-0.53-0.01
	C15.52,8.93,15.34,8.93,15.16,8.94z M16.63,9.64l3.92,6.79h-4.53V9.6C16.23,9.6,16.43,9.61,16.63,9.64z M16.03,26.16h5
	c-1.42,1.02-3.14,1.65-5,1.71V26.16z M16.03,25.5v-0.89h6.68c-0.27,0.32-0.55,0.61-0.86,0.89H16.03z M16.03,24.25v-7.21h4.88
	l3.14,5.44c-0.29,0.63-0.64,1.23-1.05,1.78H16.03z M23.1,16.43l-3.42-5.93c2.38,1.16,4.19,3.32,4.87,5.93H23.1z M24.68,17.04
	c0.1,0.55,0.16,1.12,0.16,1.7c0,0.22-0.01,0.44-0.03,0.66l-1.36-2.36H24.68z M24.67,20.48c-0.11,0.55-0.26,1.08-0.46,1.59l-2.9-5.02
	h1.38L24.67,20.48z M24.44,23.17l0.47,0.81c-0.05,0.09-0.11,0.19-0.17,0.28H23.8C24.04,23.91,24.25,23.54,24.44,23.17z M18.68,10.09
	l3.66,6.34h-1.38l-3.89-6.74C17.63,9.78,18.16,9.91,18.68,10.09z M18.19,9.25c-0.5-0.13-1.01-0.22-1.54-0.28L16.21,8.2
	c0.5,0.03,1,0.09,1.49,0.19L18.19,9.25z M15.69,4.92l1.81,3.13c-0.49-0.08-0.98-0.13-1.46-0.15l-0.35-0.6l-0.35,0.6
	c-0.49,0.02-0.98,0.07-1.46,0.15L15.69,4.92z M13.7,8.37c0.49-0.1,0.99-0.15,1.48-0.17l-0.45,0.77c-0.53,0.05-1.04,0.14-1.54,0.28
	L13.7,8.37z M14.32,9.69l-3.89,6.74H9.05l3.66-6.34C13.23,9.91,13.76,9.78,14.32,9.69z M11.66,8.99c0.38-0.16,0.77-0.29,1.16-0.4
	l-0.55,0.96c-3.72,1.4-6.38,4.99-6.38,9.19c0,0.55,0.05,1.09,0.14,1.62l-0.57,0.98C4.3,16.62,6.36,11.22,11.66,8.99z M3.81,25.5
	l1.76-3.04c0.17,0.46,0.37,0.91,0.6,1.34L5.7,24.61h0.96c0.2,0.31,0.42,0.61,0.66,0.89H3.81z M7.54,25.5
	c-0.24-0.29-0.46-0.59-0.66-0.89h0.96c0.23,0.31,0.49,0.61,0.76,0.89H7.54z M11.63,28.53c-1.39-0.59-2.56-1.41-3.5-2.37h1.16
	c1.72,1.48,3.96,2.38,6.4,2.38c2.44,0,4.68-0.9,6.4-2.38h1.15C20.36,29.08,15.85,30.3,11.63,28.53z M22.79,25.5
	c0.27-0.28,0.52-0.58,0.76-0.89h0.96c-0.21,0.31-0.43,0.61-0.67,0.89H22.79z M24.7,24.61h0.98l-0.49-0.84
	c0.23-0.43,0.44-0.88,0.61-1.33l1.77,3.07h-3.53C24.28,25.21,24.5,24.92,24.7,24.61z"/>
</svg>
